<svg xmlns="http://www.w3.org/2000/svg" width="138" height="45" fill="none" viewBox="0 0 138 45"><path fill="#E38653" d="M127.084 14.7584C127.178 14.7776 127.272 14.7969 127.369 14.8167C129.898 15.351 132.167 16.4044 134.145 18.1338C134.2 18.1811 134.254 18.2284 134.31 18.2771C135.561 19.3707 136.833 20.7851 137.019 22.5432C137.128 25.7813 135.441 29.188 133.357 31.5045C131.339 33.6857 128.718 35.243 125.819 35.7732C125.644 35.7751 125.468 35.7753 125.292 35.7732C125.09 34.6626 124.982 33.5476 124.876 32.4241C124.858 32.2284 124.839 32.0327 124.821 31.837C124.782 31.429 124.744 31.0211 124.705 30.6131C124.657 30.0927 124.607 29.5724 124.557 29.0521C124.519 28.6488 124.481 28.2454 124.443 27.842C124.425 27.6502 124.406 27.4585 124.388 27.2667C124.298 26.3246 124.213 25.3971 124.238 24.4491C124.369 24.4017 124.501 24.3542 124.636 24.3054C126.82 23.578 126.82 23.578 128.373 21.9465C128.562 21.4338 128.635 20.9376 128.499 20.4017C128.129 19.6245 127.306 19.2916 126.557 19.0049C126.104 18.8646 125.653 18.7588 125.187 18.6782C125.082 18.6584 124.977 18.6386 124.868 18.6182C122.375 18.2654 119.268 18.4707 117.157 20.0354C116.786 20.3611 116.595 20.6957 116.446 21.169C116.434 21.7956 116.642 22.2893 117.039 22.7614C117.416 23.1215 117.843 23.3589 118.297 23.5985C118.363 23.6334 118.429 23.6684 118.497 23.7044C118.951 23.9313 119.412 24.0933 119.895 24.2442C120.017 24.2828 120.14 24.3214 120.267 24.3611C120.36 24.3901 120.454 24.4192 120.55 24.4491C120.541 24.5736 120.531 24.698 120.522 24.8262C120.434 26.002 120.348 27.1778 120.261 28.3536C120.217 28.958 120.172 29.5625 120.127 30.1669C120.084 30.7507 120.041 31.3346 119.998 31.9184C119.982 32.1406 119.965 32.3628 119.949 32.5849C119.925 32.8974 119.902 33.2098 119.88 33.5222C119.873 33.613 119.866 33.7038 119.859 33.7973C119.84 34.0566 119.825 34.3158 119.812 34.5754C119.807 34.6737 119.802 34.772 119.797 34.8733C119.794 34.9708 119.791 35.0682 119.788 35.1687C119.785 35.2571 119.782 35.3455 119.779 35.4365C119.794 35.7098 119.794 35.7098 120.128 35.9365C120.233 35.9904 120.337 36.0443 120.444 36.0998C120.444 36.1717 120.444 36.2435 120.444 36.3176C117.858 35.5403 115.239 33.8636 113.29 31.9618C113.084 31.7609 112.871 31.5763 112.652 31.3905C110.69 29.608 109.357 27.1137 109.148 24.4156C109.036 22.3936 109.423 20.3673 110.75 18.7994C110.987 18.5323 111.235 18.2781 111.486 18.0249C111.557 17.9523 111.627 17.8798 111.7 17.805C112.769 16.7709 114.26 15.9245 115.702 15.6294C115.901 15.5484 116.098 15.4642 116.295 15.3776C117.198 15.0137 118.121 14.82 119.074 14.6495C119.145 14.6364 119.215 14.6233 119.288 14.6099C121.777 14.172 124.615 14.2448 127.084 14.7584Z"/><path fill="#2E2E2E" d="M5.04269 10.2941C5.80266 10.8592 6.46978 11.5193 7.12618 12.2065C7.27605 12.3634 7.42676 12.5193 7.57761 12.6751C8.0667 13.1836 8.54067 13.6985 8.99248 14.2425C9.22706 14.5192 9.47776 14.7736 9.73255 15.0306C10.1283 15.4334 10.503 15.847 10.8634 16.2837C11.2227 16.7015 11.6121 17.0896 11.9984 17.4805C13.1274 16.4916 14.186 15.4506 15.226 14.3637C15.9579 13.5989 16.6848 12.8421 17.4787 12.1452C17.6437 11.9867 17.8084 11.8279 17.9727 11.6688C18.965 10.7421 19.9571 9.89657 21.3361 9.91899C22.0344 10.0135 22.5818 10.4096 23.0644 10.927C23.4908 11.6292 23.5183 12.4373 23.5296 13.2489C23.5316 13.3451 23.5337 13.4413 23.5358 13.5405C23.5422 13.8625 23.5471 14.1846 23.5518 14.5066C23.5547 14.6765 23.5547 14.6765 23.5577 14.8497C23.6545 20.5376 23.7319 26.2687 23.3937 31.9486C23.3832 32.1371 23.3832 32.1371 23.3726 32.3293C23.3219 33.0568 23.2716 33.6981 22.7585 34.2446C22.6523 34.3208 22.6523 34.3208 22.544 34.3985C22.4735 34.451 22.403 34.5035 22.3304 34.5576C21.7293 34.9128 20.9936 34.8639 20.3242 34.7933C19.7179 34.5922 19.155 34.2992 18.8488 33.7044C18.1873 31.813 18.2886 29.606 18.2782 27.6256C18.2762 27.3846 18.2741 27.1435 18.272 26.9025C18.2667 26.276 18.2624 25.6496 18.2585 25.0231C18.2542 24.3806 18.2489 23.7382 18.2436 23.0958C18.2335 21.8411 18.2246 20.5863 18.2164 19.3316C18.1739 19.376 18.1313 19.4205 18.0875 19.4663C17.6401 19.9333 17.192 20.3996 16.7434 20.8654C16.5766 21.0388 16.41 21.2124 16.2436 21.3863C13.604 24.1428 13.604 24.1428 12.5781 24.177C11.4001 24.1504 10.5795 23.4882 9.76054 22.67C9.53353 22.4444 9.30423 22.2297 9.06645 22.0167C8.54822 21.5516 8.05149 21.0641 7.55353 20.5761C7.44817 20.4734 7.44817 20.4734 7.34069 20.3685C7.24774 20.2775 7.24774 20.2775 7.15291 20.1845C6.97514 20.0181 6.79475 19.8585 6.61022 19.7002C6.51028 19.6145 6.41034 19.5288 6.30737 19.4405C6.30629 19.5583 6.3052 19.6762 6.30408 19.7976C6.29367 20.9216 6.28283 22.0456 6.27161 23.1695C6.26586 23.747 6.26024 24.3245 6.25496 24.9021C6.17804 33.2816 6.17804 33.2816 5.71414 33.9528C5.50151 34.1626 5.2968 34.3147 5.04269 34.4666C4.94814 34.5247 4.94814 34.5247 4.85168 34.584C4.13185 34.9366 3.19297 34.9223 2.43676 34.7141C1.9491 34.5069 1.5781 34.2465 1.24866 33.8133C1.04363 33.2993 0.994636 32.8064 0.97286 32.2566C0.968896 32.1707 0.964931 32.0848 0.960847 31.9963C0.922751 31.1045 0.917616 30.2133 0.91885 29.3208C0.918706 29.1426 0.918518 28.9644 0.91829 28.7862C0.917816 28.3088 0.917993 27.8315 0.91833 27.3541C0.9186 26.8511 0.918348 26.3481 0.918184 25.8451C0.917993 25.0016 0.918242 24.158 0.918747 23.3145C0.919321 22.3427 0.919133 21.3709 0.918554 20.399C0.918074 19.5601 0.918009 18.7211 0.918284 17.8822C0.918448 17.3831 0.918473 16.884 0.918122 16.3849C0.917816 15.9159 0.918033 15.4469 0.918638 14.978C0.918776 14.807 0.91874 14.6361 0.918505 14.4651C0.914777 11.4702 0.914777 11.4702 1.48661 10.8003C2.5353 9.7751 3.77039 9.52047 5.04269 10.2941Z"/><path fill="#2E2E2E" d="M30.0915 18.3457C30.3028 18.4767 30.4742 18.6116 30.6522 18.7872C30.7348 18.8681 30.8174 18.9489 30.9025 19.0322C31.5952 20.2434 31.4045 22.0344 31.436 23.3876C31.4655 24.4962 31.5072 25.6024 31.5875 26.7086C31.598 26.8665 31.598 26.8665 31.6087 27.0277C31.7079 28.2845 31.9012 29.4331 32.8559 30.2924C33.5019 30.7191 34.3976 30.5501 35.1103 30.4077C35.7379 30.2341 36.2261 29.8174 36.554 29.2402C37.2303 27.4904 37.1174 25.4245 37.137 23.5755C37.1801 19.867 37.1801 19.867 38.0731 18.8323C38.6198 18.3098 39.2825 18.1893 40.0031 18.2083C40.5382 18.2853 40.9418 18.5376 41.3295 18.9165C42.0936 20.2323 42.0751 21.9205 42.1479 23.4106C42.1523 23.496 42.1566 23.5814 42.1611 23.6694C42.2666 25.771 42.2971 27.8736 42.3176 29.9776C42.3228 30.5137 42.3299 31.0499 42.3375 31.586C42.3432 32.0088 42.3478 32.4316 42.3521 32.8545C42.3543 33.0521 42.3568 33.2498 42.3597 33.4474C42.4023 36.4436 42.1449 39.2036 40.1373 41.5442C40.0761 41.6188 40.015 41.6935 39.952 41.7704C38.6278 43.2748 36.6557 43.9726 34.7332 44.0766C32.4342 44.1568 30.0854 43.6491 28.3455 42.0218C27.3966 41.0908 26.6698 40.1069 26.6078 38.7064C26.6853 37.866 26.9105 37.2436 27.4905 36.6443C28.0928 36.2042 28.6666 36.148 29.3875 36.2088C30.1004 36.3684 30.5446 36.7895 31.0809 37.2756C32.0724 38.1695 33.0084 38.6698 34.3486 38.637C35.1592 38.5509 35.6382 38.0983 36.1506 37.4699C36.5951 36.8213 36.9914 36.0102 36.9859 35.2037C36.9855 35.1164 36.9852 35.029 36.9848 34.939C36.984 34.8482 36.9831 34.7575 36.9822 34.664C36.9817 34.572 36.9812 34.48 36.9807 34.3852C36.9795 34.1583 36.9776 33.9314 36.9756 33.7045C36.9129 33.7532 36.8503 33.8019 36.7858 33.852C35.2903 34.979 33.7611 35.4597 31.9053 35.1974C30.2916 34.9141 28.7268 34.2665 27.7091 32.8844C26.3505 30.7925 26.2104 28.466 26.2081 26.0174C26.2077 25.8828 26.2074 25.7481 26.207 25.6094C26.2065 25.3271 26.2063 25.0448 26.2063 24.7626C26.206 24.3342 26.2041 23.9059 26.2021 23.4776C26.2018 23.2013 26.2016 22.925 26.2015 22.6488C26.2008 22.5227 26.2 22.3967 26.1992 22.2668C26.206 19.7149 26.206 19.7149 27.0039 18.8463C27.7784 18.1195 29.1152 17.9899 30.0915 18.3457Z"/><path fill="#2E2E2E" d="M49.8128 9.84036C49.9189 9.84 50.0249 9.83964 50.1342 9.83927C50.3576 9.83872 50.5811 9.83846 50.8045 9.83848C51.1396 9.83824 51.4746 9.83626 51.8097 9.8342C52.8249 9.83122 53.8317 9.84626 54.8423 9.9535C54.9599 9.96586 54.9599 9.96586 55.0799 9.97846C56.9777 10.2073 58.6252 11.2072 59.8957 12.6624C61.5494 14.8268 62.1789 17.3585 61.8738 20.087C61.6268 22.0637 60.8506 23.8475 59.4235 25.2114C59.3257 25.3125 59.2279 25.4136 59.1271 25.5177C57.2202 27.1722 54.5623 27.5412 52.1713 27.5116C52.0151 27.5105 51.8589 27.5095 51.7026 27.5087C51.3253 27.5063 50.948 27.5026 50.5707 27.498C50.5686 27.6342 50.5666 27.7703 50.5644 27.9105C50.5563 28.4199 50.547 28.9293 50.5373 29.4386C50.5333 29.6582 50.5296 29.8779 50.5263 30.0975C50.5214 30.4149 50.5153 30.7322 50.509 31.0495C50.5078 31.1463 50.5065 31.2431 50.5053 31.3429C50.4824 32.3646 50.3863 33.5211 49.6836 34.3072C49.0085 34.9221 48.3476 34.9598 47.4807 34.9367C46.8304 34.8789 46.4495 34.6785 45.9994 34.2013C44.6843 32.0586 45.2851 28.0954 45.2871 25.6444C45.2874 25.1969 45.2871 24.7493 45.2869 24.3018C45.2867 23.552 45.287 22.8022 45.2875 22.0525C45.2881 21.1891 45.2879 20.3257 45.2873 19.4623C45.2868 18.7157 45.2868 17.9691 45.287 17.2225C45.2872 16.7789 45.2872 16.3352 45.2869 15.8916C45.2866 15.4752 45.2868 15.0587 45.2874 14.6423C45.2875 14.4907 45.2875 14.339 45.2873 14.1873C45.2834 11.4289 45.2834 11.4289 46.0982 10.546C47.0737 9.75649 48.6382 9.8418 49.8128 9.84036ZM50.5707 15.3029C50.5707 17.5307 50.5707 19.7585 50.5707 22.0538C53.4977 22.0908 53.4977 22.0908 55.9872 20.7229C56.7074 19.8992 56.827 19.0499 56.8184 17.9765C56.7662 17.2958 56.5439 16.8327 56.13 16.3101C54.5553 14.9789 52.5147 14.9682 50.5707 15.3029Z"/><path fill="#2E2E2E" d="M70.2868 18.007C72.3806 17.9166 74.4353 18.8673 76.0034 20.2366C76.7464 20.9531 77.2779 21.8167 77.3632 22.8805C77.3847 23.5288 77.3589 24.1055 77.0244 24.6669C76.3694 25.3352 75.4802 25.7016 74.6597 26.1028C74.5142 26.1748 74.3687 26.2468 74.2233 26.3189C73.214 26.8168 72.1938 27.2861 71.1672 27.7449C69.7071 28.2882 69.7071 28.2882 68.5932 29.2401C70.0362 29.8653 70.9622 29.8373 72.4387 29.2435C73.1948 28.9438 73.8811 28.9692 74.6267 29.3081C75.2345 29.6577 75.6576 30.1885 75.8651 30.8733C75.9532 31.7656 75.9868 32.6753 75.5275 33.467C74.7039 34.4992 73.5285 34.9329 72.2818 35.1199C69.4643 35.2773 67.116 35.0803 64.9045 33.051C64.831 32.9854 64.7575 32.9197 64.6818 32.852C63.218 31.4542 62.3643 29.2163 62.2447 27.1793C62.1884 24.9068 62.8221 22.8882 64.1668 21.0737C64.2244 20.9951 64.282 20.9165 64.3413 20.8355C65.6413 19.1966 67.5311 18.3043 69.5417 18.0657C69.79 18.0446 70.0385 18.0274 70.2868 18.007ZM68.1716 24.4491C67.7301 24.9052 67.441 25.4534 67.4256 26.1066C67.4284 26.2064 67.4311 26.3062 67.4339 26.4091C69.1094 25.738 70.7496 24.9944 72.3872 24.2314C72.0787 23.8977 71.8725 23.7282 71.4387 23.6053C71.305 23.5657 71.305 23.5657 71.1686 23.5253C70.1145 23.2949 69.0018 23.8095 68.1716 24.4491Z"/><path fill="#2E2E2E" d="M91.5678 18.8961C92.1206 19.3943 92.5418 19.9876 92.6547 20.7527C92.6979 21.5382 92.5024 22.3502 91.9956 22.9487C91.4394 23.465 91.0626 23.6143 90.3031 23.5782C89.9565 23.4982 89.9565 23.4982 89.6049 23.3876C89.4128 23.3291 89.4128 23.3291 89.2167 23.2694C88.9657 23.1876 88.716 23.1011 88.4683 23.0091C87.5542 22.6781 86.9041 22.6373 86.0143 23.0597C85.4658 23.3735 84.9116 23.7545 84.6121 24.3404C84.501 24.9634 84.4877 25.5761 84.4808 26.2084C84.4773 26.4277 84.4738 26.6471 84.4703 26.8664C84.4653 27.2065 84.4607 27.5465 84.4564 27.8866C84.4405 29.1175 84.4072 30.3437 84.312 31.571C84.3012 31.721 84.3012 31.721 84.2903 31.874C84.2258 32.6265 84.1302 33.4528 83.6887 34.0749C82.894 34.7294 82.256 34.9717 81.2289 34.9396C80.6093 34.8637 80.1723 34.5947 79.7312 34.1468C77.7695 31.4994 78.7946 24.4721 79.1643 21.343C79.3185 20.1911 79.6289 19.3255 80.5286 18.5899C81.0714 18.2085 81.6577 18.1724 82.2935 18.2428C83.1051 18.4276 83.6223 18.9571 84.1905 19.5494C84.2735 19.485 84.3565 19.4206 84.4421 19.3542C86.6132 17.7114 89.2193 17.3393 91.5678 18.8961Z"/><path fill="#2E2E2E" d="M107.423 19.4336C107.833 19.9931 107.884 20.7228 107.798 21.4003C107.597 22.1829 107.179 22.6952 106.533 23.1425C105.822 23.4884 104.918 23.4025 104.175 23.1744C104.101 23.1459 104.027 23.1174 103.951 23.0881C103.093 22.7594 102.16 22.7057 101.294 23.0247C100.711 23.3097 100.133 23.7005 99.8939 24.3402C99.7821 25.1122 99.7652 25.8946 99.7432 26.6736C99.7355 26.9132 99.7276 27.1528 99.7198 27.3924C99.7079 27.7633 99.6964 28.1342 99.6859 28.5052C99.65 29.7469 99.6044 30.9779 99.4279 32.208C99.4154 32.2955 99.4029 32.3829 99.39 32.473C99.2643 33.2684 99.0341 33.9226 98.4909 34.5142C97.8497 34.8994 97.3271 35.0885 96.577 34.9786C95.9771 34.8062 95.5347 34.4365 95.1118 33.9766C94.657 32.9644 94.5669 31.7857 94.4993 30.6828C94.4909 30.5509 94.4826 30.4191 94.4741 30.2832C93.9791 21.3618 93.9791 21.3618 95.1382 19.3724C95.6493 18.7822 96.1992 18.4016 96.9759 18.3107C97.8556 18.4032 98.4499 18.6235 99.073 19.2852C99.2763 19.4857 99.2763 19.4857 99.6831 19.4404C99.9436 19.2636 99.9436 19.2636 100.21 19.0321C102.326 17.3854 105.439 17.8045 107.423 19.4336Z"/><path fill="#B66A43" d="M115.386 15.7384C115.386 15.8103 115.386 15.8821 115.386 15.9562C115.235 16.085 115.084 16.2136 114.931 16.3402C114.629 16.6128 114.394 16.9319 114.154 17.2628C114.1 17.337 114.046 17.4112 113.991 17.4876C113.145 18.6943 112.409 20.0711 112.013 21.5093C111.981 21.6257 111.981 21.6257 111.948 21.7445C111.785 22.4083 111.771 23.0524 111.776 23.7346C111.775 23.8405 111.774 23.9464 111.774 24.0556C111.781 26.8246 113.114 29.1945 114.814 31.237C114.939 31.388 115.063 31.5407 115.186 31.6939C115.532 32.1184 115.903 32.4867 116.313 32.8448C116.573 33.0762 116.821 33.3187 117.072 33.5615C118.048 34.4801 119.111 35.33 120.273 35.9817C120.33 36.0207 120.386 36.0597 120.444 36.0999C120.444 36.1718 120.444 36.2436 120.444 36.3177C117.858 35.5404 115.239 33.8637 113.29 31.9618C113.084 31.761 112.871 31.5763 112.652 31.3906C110.69 29.6081 109.357 27.1138 109.148 24.4157C109.036 22.3937 109.423 20.3674 110.75 18.7995C110.987 18.5324 111.235 18.2782 111.486 18.025C111.557 17.9524 111.627 17.8799 111.7 17.8051C112.514 17.0175 114.194 15.7384 115.386 15.7384Z"/><path fill="#E38653" d="M127.334 0.68504C127.425 0.765887 127.517 0.846734 127.611 0.930031C127.698 1.0019 127.785 1.07376 127.874 1.1478C129.25 2.85355 129.33 5.21621 129.169 7.32851C129.004 9.01312 128.693 10.7504 127.453 11.9682C126.746 12.4428 126.138 12.6523 125.292 12.5807C124.538 12.3755 124.021 12.0704 123.606 11.383C122.409 9.23908 122.497 6.31737 123.079 3.97881C123.456 2.63442 123.95 1.32547 125.169 0.596571C125.877 0.262495 126.651 0.319089 127.334 0.68504ZM124.871 2.88996C124.15 4.11543 124.104 5.7173 124.093 7.10925C124.092 7.22127 124.09 7.33329 124.089 7.4487C124.096 8.6146 124.25 9.73851 125.055 10.6004C125.408 10.7929 125.741 10.8584 126.135 10.8386C126.733 10.6362 126.929 10.3603 127.222 9.79055C128.077 7.83684 128.017 5.27459 127.317 3.27871C127.101 2.80484 126.808 2.36619 126.346 2.12777C125.665 1.9938 125.286 2.38157 124.871 2.88996Z"/><path fill="#2E2E2E" d="M119.826 6.44235C120.451 6.97641 120.733 7.63031 120.866 8.44311C120.893 8.77445 120.902 9.10429 120.906 9.43669C120.907 9.51855 120.909 9.60042 120.91 9.68476C120.904 10.4263 120.757 11.0294 120.273 11.6008C119.886 11.8381 119.651 11.9203 119.206 11.8909C118.726 11.744 118.482 11.3754 118.232 10.9475C117.694 9.76674 117.478 8.38938 117.915 7.13649C118.367 6.36268 119.005 6.0015 119.826 6.44235Z"/><path fill="#2E2E2E" d="M126.024 6.5376C126.347 6.59204 126.347 6.59204 126.59 6.803C126.868 7.32288 126.934 7.79766 126.823 8.38226C126.688 8.8488 126.55 9.26312 126.136 9.53194C125.813 9.53194 125.813 9.53194 125.504 9.42305C125.099 8.9685 125.067 8.49802 125.082 7.89866C125.202 7.27587 125.353 6.65561 126.024 6.5376Z"/></svg>